<?xml version="1.0" encoding="UTF-8"?><svg id="Layer_2" xmlns="http://www.w3.org/2000/svg" viewBox="0 0 344.85 66.26"><defs><style>.cls-1{fill:#6a0af2;}.cls-2{fill:#f7f6f9;}</style></defs><g id="Layer_1-2"><rect class="cls-2" width="344.85" height="66.26" rx="14.77" ry="14.77"/><path d="M167.17,39.84v-8.94c0-1.13-.26-1.97-.77-2.52s-1.32-.83-2.41-.83c-1.45,0-2.52.4-3.18,1.19-.67.79-1,2.08-1,3.88v7.22h-2.09v-19.62h2.09v5.94c0,.71-.03,1.31-.1,1.78h.13c.41-.66,1-1.19,1.76-1.57.76-.38,1.63-.57,2.6-.57,1.69,0,2.96.4,3.8,1.2.84.8,1.27,2.08,1.27,3.83v9.01h-2.09Z"/><path d="M182.06,39.84l-.42-1.97h-.1c-.69.87-1.38,1.45-2.06,1.76-.69.31-1.54.46-2.57.46-1.37,0-2.44-.35-3.22-1.06-.78-.71-1.17-1.71-1.17-3.01,0-2.79,2.23-4.25,6.69-4.39l2.34-.08v-.86c0-1.08-.23-1.88-.7-2.4-.47-.52-1.21-.78-2.24-.78-1.15,0-2.45.35-3.91,1.06l-.64-1.6c.68-.37,1.43-.66,2.24-.87.81-.21,1.62-.31,2.44-.31,1.65,0,2.87.37,3.66,1.1.79.73,1.19,1.9,1.19,3.52v9.43h-1.55ZM177.33,38.37c1.3,0,2.33-.36,3.07-1.07s1.12-1.71,1.12-3v-1.25l-2.09.09c-1.66.06-2.86.32-3.6.78s-1.1,1.17-1.1,2.14c0,.76.23,1.33.69,1.73s1.1.59,1.92.59Z"/><path d="M196.83,36.07c0,1.29-.48,2.28-1.44,2.98-.96.7-2.3,1.05-4.03,1.05-1.83,0-3.26-.29-4.29-.87v-1.94c.66.34,1.38.6,2.14.79.76.19,1.49.29,2.2.29,1.09,0,1.93-.17,2.52-.52.59-.35.88-.88.88-1.59,0-.54-.23-1-.7-1.38-.47-.38-1.38-.83-2.73-1.36-1.29-.48-2.2-.9-2.74-1.25-.54-.36-.95-.76-1.21-1.22s-.4-1-.4-1.63c0-1.13.46-2.02,1.37-2.67s2.17-.98,3.77-.98c1.49,0,2.94.3,4.36.91l-.74,1.7c-1.39-.57-2.64-.86-3.77-.86-.99,0-1.74.16-2.24.47-.5.31-.76.74-.76,1.29,0,.37.09.69.28.95.19.26.49.51.91.74.42.24,1.23.58,2.42,1.02,1.64.6,2.75,1.2,3.32,1.8.58.61.86,1.37.86,2.28Z"/><path d="M208.73,39.84l-.42-1.97h-.1c-.69.87-1.38,1.45-2.06,1.76-.69.31-1.54.46-2.57.46-1.37,0-2.44-.35-3.22-1.06-.78-.71-1.17-1.71-1.17-3.01,0-2.79,2.23-4.25,6.69-4.39l2.34-.08v-.86c0-1.08-.23-1.88-.7-2.4-.47-.52-1.21-.78-2.24-.78-1.15,0-2.45.35-3.91,1.06l-.64-1.6c.68-.37,1.43-.66,2.24-.87.81-.21,1.62-.31,2.44-.31,1.65,0,2.87.37,3.66,1.1.79.73,1.19,1.9,1.19,3.52v9.43h-1.55ZM204,38.37c1.3,0,2.33-.36,3.07-1.07s1.12-1.71,1.12-3v-1.25l-2.09.09c-1.66.06-2.86.32-3.6.78s-1.1,1.17-1.1,2.14c0,.76.23,1.33.69,1.73s1.1.59,1.92.59Z"/><path d="M224.05,39.84v-8.94c0-1.13-.26-1.97-.77-2.52s-1.32-.83-2.41-.83c-1.45,0-2.5.39-3.18,1.17-.67.78-1.01,2.07-1.01,3.87v7.25h-2.09v-13.82h1.7l.34,1.89h.1c.43-.68,1.03-1.21,1.8-1.58.77-.37,1.63-.56,2.58-.56,1.66,0,2.92.4,3.76,1.2.84.8,1.26,2.09,1.26,3.85v9.01h-2.09Z"/><path d="M249.9,30.65c0,1.19-.18,2.29-.55,3.28-.37.99-.89,1.76-1.56,2.31-.67.55-1.45.82-2.32.82-.72,0-1.33-.22-1.83-.66-.5-.44-.79-1-.88-1.68h-.1c-.34.73-.82,1.3-1.44,1.71-.63.41-1.37.62-2.23.62-1.26,0-2.25-.43-2.96-1.29s-1.07-2.03-1.07-3.51c0-1.71.5-3.11,1.49-4.18.99-1.07,2.29-1.61,3.91-1.61.57,0,1.22.05,1.94.16s1.37.25,1.95.44l-.31,5.92v.28c0,1.5.56,2.24,1.68,2.24.76,0,1.39-.45,1.87-1.36.48-.9.72-2.08.72-3.52,0-1.52-.31-2.85-.93-4-.62-1.14-1.51-2.02-2.65-2.64s-2.46-.93-3.95-.93c-1.87,0-3.5.39-4.89,1.17-1.39.78-2.45,1.89-3.18,3.33-.73,1.44-1.1,3.11-1.1,5,0,2.56.68,4.53,2.03,5.91,1.35,1.38,3.3,2.07,5.85,2.07,1.77,0,3.6-.36,5.5-1.08v1.68c-1.61.71-3.45,1.06-5.5,1.06-3.05,0-5.42-.84-7.1-2.52-1.68-1.68-2.53-4.02-2.53-7.03,0-2.19.45-4.13,1.35-5.84.9-1.71,2.18-3.03,3.84-3.96,1.66-.94,3.57-1.41,5.72-1.41,1.81,0,3.41.38,4.82,1.14,1.41.76,2.5,1.84,3.26,3.24.77,1.4,1.15,3.01,1.15,4.83ZM236.87,32.3c0,2.13.82,3.2,2.46,3.2,1.74,0,2.68-1.32,2.84-3.95l.18-3.29c-.61-.17-1.26-.25-1.98-.25-1.09,0-1.95.38-2.57,1.13-.62.76-.93,1.81-.93,3.15Z"/><path d="M262.56,36.07c0,1.29-.48,2.28-1.44,2.98-.96.7-2.3,1.05-4.03,1.05-1.83,0-3.26-.29-4.29-.87v-1.94c.66.34,1.38.6,2.14.79.76.19,1.49.29,2.2.29,1.09,0,1.93-.17,2.52-.52.59-.35.88-.88.88-1.59,0-.54-.23-1-.7-1.38-.47-.38-1.38-.83-2.73-1.36-1.29-.48-2.2-.9-2.74-1.25-.54-.36-.95-.76-1.21-1.22s-.4-1-.4-1.63c0-1.13.46-2.02,1.37-2.67s2.17-.98,3.77-.98c1.49,0,2.94.3,4.36.91l-.74,1.7c-1.39-.57-2.64-.86-3.77-.86-.99,0-1.74.16-2.24.47-.5.31-.76.74-.76,1.29,0,.37.09.69.28.95.19.26.49.51.91.74.42.24,1.23.58,2.42,1.02,1.64.6,2.75,1.2,3.32,1.8.58.61.86,1.37.86,2.28Z"/><path d="M277.25,39.84l-2.53-8.11c-.16-.5-.46-1.62-.9-3.38h-.1c-.34,1.47-.63,2.61-.88,3.4l-2.61,8.08h-2.42l-3.77-13.82h2.19c.89,3.47,1.57,6.11,2.04,7.93s.73,3.04.8,3.67h.1c.09-.48.24-1.1.45-1.86s.38-1.36.54-1.81l2.53-7.93h2.27l2.47,7.93c.47,1.45.79,2.66.96,3.64h.1c.03-.3.12-.77.27-1.4s1.02-4.02,2.63-10.17h2.17l-3.82,13.82h-2.48Z"/><path d="M285.87,22.28c0-.48.12-.83.35-1.05s.53-.33.88-.33.63.11.87.34c.24.23.37.58.37,1.05s-.12.82-.37,1.05c-.24.23-.53.35-.87.35-.35,0-.65-.12-.88-.35-.24-.23-.35-.58-.35-1.05ZM288.14,39.84h-2.09v-13.82h2.09v13.82Z"/><path d="M299.01,40.09c-.9,0-1.72-.17-2.46-.5-.74-.33-1.37-.84-1.87-1.53h-.15c.1.81.15,1.57.15,2.29v5.69h-2.09v-20.02h1.7l.29,1.89h.1c.54-.76,1.16-1.3,1.88-1.64.71-.34,1.53-.5,2.46-.5,1.83,0,3.25.63,4.24,1.88,1,1.25,1.49,3.01,1.49,5.27s-.51,4.03-1.52,5.29c-1.01,1.26-2.42,1.88-4.22,1.88ZM298.7,27.55c-1.41,0-2.43.39-3.06,1.17-.63.78-.95,2.03-.97,3.73v.47c0,1.94.32,3.33.97,4.17.65.84,1.68,1.25,3.11,1.25,1.19,0,2.13-.48,2.81-1.45.68-.97,1.01-2.3,1.01-4s-.34-3.04-1.01-3.96c-.68-.92-1.63-1.38-2.86-1.38Z"/><path d="M314.23,40.09c-2.04,0-3.65-.62-4.83-1.87-1.18-1.24-1.77-2.97-1.77-5.18s.55-4,1.64-5.31,2.57-1.97,4.42-1.97c1.73,0,3.1.57,4.11,1.71,1.01,1.14,1.51,2.64,1.51,4.51v1.32h-9.52c.04,1.62.45,2.85,1.23,3.69.78.84,1.87,1.26,3.28,1.26,1.49,0,2.96-.31,4.41-.93v1.87c-.74.32-1.44.55-2.1.69s-1.46.21-2.39.21ZM313.67,27.53c-1.11,0-1.99.36-2.65,1.08-.66.72-1.05,1.72-1.17,3h7.22c0-1.32-.29-2.33-.88-3.03-.59-.7-1.43-1.05-2.52-1.05Z"/><g id="mnrLO7.tif"><polygon class="cls-1" points="73.65 21.95 79.96 21.95 73.62 44.98 66.78 44.99 62.92 28.95 59.05 44.99 52.22 44.99 45.88 21.95 52.19 21.94 56.1 38.52 59.79 22.17 66.04 22.17 69.78 38.49 73.65 21.95"/><path class="cls-1" d="M107.93,44.75c-1.46.39-2.85.41-4.33.31l-4.81-.56v9.26s-6.65,0-6.65,0l.02-12.1v-19.26s5.99-.78,5.99-.78c2.19-.28,4.3-.41,6.5-.37,3.47.17,6.49,1.49,7.89,4.78.61,1.43.94,2.93.94,4.51v5.52c0,1.55-.3,3.03-.84,4.45-.81,2.13-2.46,3.66-4.71,4.24ZM106.28,37.97c.28-.86.43-1.73.42-2.63v-4.32c0-.83-.17-1.65-.46-2.4-.35-.93-1.07-1.52-2.02-1.77-.73-.15-1.48-.23-2.24-.14l-3.26.39v12.46s2.32.48,2.32.48c.88.18,1.76.24,2.64.12,1.24-.19,2.19-.96,2.59-2.19Z"/><path class="cls-1" d="M28.91,44.83c-1.43-.38-2.69-.79-4.08-1.3l-.65-5.56c1.97.61,3.89,1.14,5.9,1.56,2.53.53,7.59,1.1,9.01-1.06.81-1.24.54-2.88-.59-3.82-.53-.45-1.08-.82-1.71-1.1l-3.05-1.35c-2.34-1.04-5.01-1.97-6.9-3.68-1.24-1.12-2.06-2.55-2.37-4.2-.27-1.41-.23-2.8.1-4.19.9-3.73,4.22-5.52,7.87-6,2.05-.27,4.04-.21,6.09.05,2,.27,3.9.73,5.74,1.55v5.69c-2.62-1.14-5.37-1.81-8.22-1.9-1.63,0-4.22.08-4.97,1.42-.61,1.11-.28,2.43.66,3.25.82.72,1.75,1.21,2.77,1.63l4.89,2c3.1,1.27,5.72,3.18,6.38,6.6.31,1.6.27,3.19-.15,4.75-.97,3.64-4.13,5.47-7.71,6.08-3.01.48-6.01.32-9.02-.41Z"/><path class="cls-1" d="M135.99,38.21l-.75,5.56c-2.85,1.4-6.48,1.92-9.68,1.72-3.72-.23-6.91-1.98-8.37-5.48-.63-1.51-.95-3.09-.95-4.75v-3.76c0-1.62.31-3.16.9-4.64,1-2.5,2.99-4.33,5.59-5.08s5.29-.73,7.81.09c2.38.77,4.18,2.44,5.17,4.7.57,1.3.87,2.63.97,4.06l.06,3.16-14.17,2.32c.32,2.86,2.17,4.24,5.04,4.34,1.61.02,3.15-.26,4.69-.74l3.68-1.48ZM130.7,30.44c-.11-.97-.29-1.81-.64-2.62-.48-1.1-1.39-1.84-2.58-2l-1.87.04c-2.78.59-3.31,3.42-3.25,6.05l8.34-1.47Z"/><rect class="cls-1" x="82.07" y="21.83" width="6.63" height="23.28"/><rect class="cls-1" x="82.07" y="12.5" width="6.63" height="5.32"/></g></g></svg>