<?xml version="1.0" encoding="UTF-8"?><svg id="Layer_2" xmlns="http://www.w3.org/2000/svg" viewBox="0 0 344.85 66.26"><defs><style>.cls-1{fill:#6a0af2;}.cls-2{fill:#f7f6f9;}.cls-3{font-family:OpenSans, 'Open Sans';font-size:25.82px;}</style></defs><g id="Layer_1-2"><rect class="cls-2" width="344.85" height="66.26" rx="14.77" ry="14.77"/><text class="cls-3" transform="translate(155.49 39.84)"><tspan x="0" y="0">hasan@swipe</tspan></text><g id="mnrLO7.tif"><polygon class="cls-1" points="73.65 21.95 79.96 21.95 73.62 44.98 66.78 44.99 62.92 28.95 59.05 44.99 52.22 44.99 45.88 21.95 52.19 21.94 56.1 38.52 59.79 22.17 66.04 22.17 69.78 38.49 73.65 21.95"/><path class="cls-1" d="M107.93,44.75c-1.46.39-2.85.41-4.33.31l-4.81-.56v9.26s-6.65,0-6.65,0l.02-12.1v-19.26s5.99-.78,5.99-.78c2.19-.28,4.3-.41,6.5-.37,3.47.17,6.49,1.49,7.89,4.78.61,1.43.94,2.93.94,4.51v5.52c0,1.55-.3,3.03-.84,4.45-.81,2.13-2.46,3.66-4.71,4.24ZM106.28,37.97c.28-.86.43-1.73.42-2.63v-4.32c0-.83-.17-1.65-.46-2.4-.35-.93-1.07-1.52-2.02-1.77-.73-.15-1.48-.23-2.24-.14l-3.26.39v12.46s2.32.48,2.32.48c.88.18,1.76.24,2.64.12,1.24-.19,2.19-.96,2.59-2.19Z"/><path class="cls-1" d="M28.91,44.83c-1.43-.38-2.69-.79-4.08-1.3l-.65-5.56c1.97.61,3.89,1.14,5.9,1.56,2.53.53,7.59,1.1,9.01-1.06.81-1.24.54-2.88-.59-3.82-.53-.45-1.08-.82-1.71-1.1l-3.05-1.35c-2.34-1.04-5.01-1.97-6.9-3.68-1.24-1.12-2.06-2.55-2.37-4.2-.27-1.41-.23-2.8.1-4.19.9-3.73,4.22-5.52,7.87-6,2.05-.27,4.04-.21,6.09.05,2,.27,3.9.73,5.74,1.55v5.69c-2.62-1.14-5.37-1.81-8.22-1.9-1.63,0-4.22.08-4.97,1.42-.61,1.11-.28,2.43.66,3.25.82.72,1.75,1.21,2.77,1.63l4.89,2c3.1,1.27,5.72,3.18,6.38,6.6.31,1.6.27,3.19-.15,4.75-.97,3.64-4.13,5.47-7.71,6.08-3.01.48-6.01.32-9.02-.41Z"/><path class="cls-1" d="M135.99,38.21l-.75,5.56c-2.85,1.4-6.48,1.92-9.68,1.72-3.72-.23-6.91-1.98-8.37-5.48-.63-1.51-.95-3.09-.95-4.75v-3.76c0-1.62.31-3.16.9-4.64,1-2.5,2.99-4.33,5.59-5.08s5.29-.73,7.81.09c2.38.77,4.18,2.44,5.17,4.7.57,1.3.87,2.63.97,4.06l.06,3.16-14.17,2.32c.32,2.86,2.17,4.24,5.04,4.34,1.61.02,3.15-.26,4.69-.74l3.68-1.48ZM130.7,30.44c-.11-.97-.29-1.81-.64-2.62-.48-1.1-1.39-1.84-2.58-2l-1.87.04c-2.78.59-3.31,3.42-3.25,6.05l8.34-1.47Z"/><rect class="cls-1" x="82.07" y="21.83" width="6.63" height="23.28"/><rect class="cls-1" x="82.07" y="12.5" width="6.63" height="5.32"/></g></g></svg>
